PathFileType	4	(X/Y/Z)	DARI_DATA/Captury_Subj7_bilateral_squat01.trc
DataRate	CameraRate	NumFrames	NumMarkers	Units	OrigDataRate	OrigDataStartFrame	OrigNumFrames
60	60	6	47	mm	60.00239944458008	268	357
Frame#	Time		LeftUpLeg_		RightUpLeg_		LeftLeg_		RightLeg_		LeftFoot_		RightFoot_		LeftToeBase_		RightToeBase_		Knee_Lateral_r		Knee_Lateral_l		Ankle_Lateral_r		Ankle_Lateral_l		LeftArm_		LeftForeArm_		LeftHand_		LeftHandEE		RightArm_		RightForeArm_		RightHand_		RightHandEE		Spine_		Spine1_		Spine2_		Spine3_		Spine4_		Spine5_		Spine_x		Spine_y		Spine_z		RASI		LASI		RIPS		LIPS		RTHI		LTHI		RTIB		LTIB		RTOE		LTOE		RHEE		LHEE		RHipAngles		LHipAngles		RKneeAngles		LKneeAngles		RAnkleAngles		LAnkleAngles
			X1	Y1	Z1	X2	Y2	Z2	X3	Y3	Z3	X4	Y4	Z4	X5	Y5	Z5	X6	Y6	Z6	X7	Y7	Z7	X8	Y8	Z8	X9	Y9	Z9	X10	Y10	Z10	X11	Y11	Z11	X12	Y12	Z12	X13	Y13	Z13	X14	Y14	Z14	X15	Y15	Z15	X16	Y16	Z16	X17	Y17	Z17	X18	Y18	Z18	X19	Y19	Z19	X20	Y20	Z20	X21	Y21	Z21	X22	Y22	Z22	X23	Y23	Z23	X24	Y24	Z24	X25	Y25	Z25	X26	Y26	Z26	X27	Y27	Z27	X28	Y28	Z28	X29	Y29	Z29	X30	Y30	Z30	X31	Y31	Z31	X32	Y32	Z32	X33	Y33	Z33	X34	Y34	Z34	X35	Y35	Z35	X36	Y36	Z36	X37	Y37	Z37	X38	Y38	Z38	X39	Y39	Z39	X40	Y40	Z40	X41	Y41	Z41	X42	Y42	Z42	X43	Y43	Z43	X44	Y44	Z44	X45	Y45	Z45	X46	Y46	Z46	X47	Y47	Z47

268	4.45000	-136.89539	648.03455	176.20053	38.53176	650.39746	189.14256	-338.32883	453.88586	-147.27661	232.44531	448.65356	-134.28212	-278.99744	97.16800	10.97842	185.96751	93.34427	31.27043	-313.64700	23.73042	-99.22399	219.05318	25.56596	-82.96479	276.29883	450.23114	-112.28122	-381.52945	454.36728	-123.97143	221.89468	97.57928	69.82566	-313.57516	101.27992	50.76129	-184.62343	1062.84900	-89.02042	-360.74988	970.37238	-317.50748	-365.66980	936.38940	-573.80103	-364.44006	928.79608	-667.85706	97.47453	1051.47424	-74.13952	241.71216	974.72571	-329.25510	255.52638	958.48682	-586.95825	261.68964	965.52924	-680.86316	-48.83996	744.66284	160.61168	-45.55908	819.03613	100.16097	-44.89547	882.13226	75.31757	-45.38794	969.15656	57.90699	-42.94754	1072.75732	-24.62166	-0.00000	0.00000	-0.00000	0.17298	745.32300	164.22757	-47.94602	789.42151	140.32268	-52.40527	764.96082	205.23297	106.21922	671.07306	76.54166	-187.85841	667.11206	54.84628	-12.30516	730.51459	202.45058	-90.72586	729.45831	196.66513	188.49634	557.04749	72.38103	-289.34384	556.61603	61.13981	253.41187	284.30334	-55.61693	-343.70404	232.79506	-52.31284	246.50513	22.94073	-155.04312	-344.29532	20.37715	-169.97159	156.01816	34.27442	83.67629	-244.69681	41.40927	64.33586	-86.44370	20.24415	9.88494	-90.11295	29.95363	13.46933	-81.31036	-0.11971	-1.32465	-82.29609	-0.34886	-0.86354	-11.31056	-5.75830	-9.12783	-8.01424	-5.71728	-8.85923
269	4.46667	-137.26289	662.30475	171.66402	38.14553	664.51190	184.88380	-335.79523	455.08685	-145.43568	229.74762	451.31232	-132.51369	-278.84076	97.06909	10.74373	186.35536	94.60837	30.86308	-313.63354	24.03057	-99.67857	219.31946	25.68388	-82.71961	273.63165	453.09296	-110.58928	-379.01965	455.74744	-122.17905	222.32430	99.23872	69.33383	-313.43332	101.24487	50.50703	-183.86098	1080.75867	-86.69152	-365.25171	978.16547	-306.57968	-367.64288	940.29303	-562.36359	-365.14856	930.49432	-656.19043	97.82935	1070.03918	-72.41539	246.97229	982.91144	-321.30075	257.14008	965.28058	-579.08209	261.49725	971.30676	-673.15875	-49.22958	759.23102	157.90860	-45.84774	834.76093	98.47977	-45.09754	898.43347	74.37714	-45.45874	985.90228	57.89622	-42.64730	1090.65735	-23.59468	-0.00000	0.00000	-0.00000	-0.22187	759.84772	161.60210	-48.32821	804.34241	138.41681	-52.86411	778.73389	202.87753	105.97562	687.20728	72.75872	-188.07068	683.50726	50.59770	-12.74495	744.35925	199.53984	-91.15729	743.37256	193.63025	187.06244	566.22034	70.86908	-288.37408	565.17224	59.55907	252.14328	286.64178	-54.91946	-342.64017	233.47414	-51.79217	246.71495	22.42621	-154.79361	-344.27118	21.02148	-170.44626	156.44891	36.07111	83.88742	-244.70911	41.07207	63.95979	-83.63821	19.91355	10.16854	-87.21752	29.60504	14.36062	-79.00387	-0.12045	-1.29786	-79.82430	-0.40633	-0.86164	-10.26793	-5.75443	-9.14680	-7.76752	-5.71736	-8.96533
270	4.48333	-137.58549	676.37469	167.25745	37.83298	678.17224	180.40582	-333.18774	456.80927	-143.28607	227.01152	453.97772	-130.80917	-279.10052	97.31738	10.50813	187.05328	95.96814	30.57526	-314.12402	24.72630	-100.13599	219.80161	25.72613	-82.26020	270.94977	456.03156	-109.01771	-376.44861	457.68915	-120.10463	223.09396	101.05518	68.92096	-313.72510	101.57236	50.23516	-183.17041	1098.64490	-84.18353	-368.53613	985.82050	-295.58118	-369.11407	943.82861	-550.73169	-365.50711	931.26489	-644.19214	97.90280	1088.34265	-70.52594	251.77187	990.93298	-312.63016	258.69171	970.85944	-570.34052	260.41315	976.35651	-664.53467	-49.44108	773.38654	154.88623	-45.98540	850.02588	96.39234	-45.16154	914.29956	73.01947	-45.43817	1002.25269	57.54747	-42.45525	1108.32507	-22.73182	-0.00000	0.00000	-0.00000	-0.43056	773.88873	158.55978	-48.49539	818.78027	136.06355	-53.02617	792.22626	200.14095	105.62728	702.44159	68.58917	-188.43582	699.42834	46.54787	-12.95113	757.85590	196.27151	-91.36797	757.05237	190.39383	185.69017	575.25092	69.13014	-287.36877	573.91785	58.15021	250.99620	289.05234	-54.23796	-341.80209	234.61673	-51.17522	247.08926	21.73982	-154.33847	-344.69513	22.13670	-170.94902	157.22130	38.05653	84.32358	-245.33583	41.01522	63.63623	-81.02502	19.71114	10.31767	-84.47924	29.08959	15.17827	-76.73888	-0.16743	-1.26517	-77.34562	-0.47995	-0.85808	-9.15300	-5.75011	-9.17718	-7.48243	-5.71668	-8.95655
271	4.50000	-137.66077	690.29474	162.42876	37.77070	692.12573	175.39755	-330.59595	458.55887	-140.85503	224.51941	456.52148	-128.77695	-279.19250	97.57816	10.35051	187.55957	97.15381	30.28700	-314.60550	25.25821	-100.34721	220.10899	25.65662	-81.81533	268.51434	458.91135	-107.13461	-373.84927	459.60522	-117.66643	223.65714	102.62900	68.52560	-313.79044	101.93919	50.08923	-183.04161	1116.90991	-82.37102	-371.25790	993.03754	-284.87787	-370.13440	946.18634	-539.17920	-365.88831	932.17987	-632.40747	97.89301	1106.55811	-69.76069	256.92749	997.58264	-303.45102	260.22946	975.78802	-561.09332	259.11099	980.75488	-655.32599	-49.69439	787.68518	151.90213	-46.35626	865.55762	94.56788	-45.52813	930.42841	72.00725	-45.69646	1018.82727	57.50730	-42.49184	1126.04712	-21.71500	-0.00000	0.00000	-0.00000	-0.68023	788.19672	155.52551	-48.84817	833.44940	133.99414	-53.25451	805.60583	197.53055	105.38464	718.75171	64.00884	-188.70029	715.68237	42.26855	-13.12687	771.38831	192.92268	-91.54951	770.56982	187.12527	184.57039	584.47754	67.23767	-286.17090	582.52448	56.75404	249.88867	291.27185	-53.35965	-340.86826	235.78307	-50.33665	247.31616	20.97442	-153.88220	-345.20218	22.96180	-171.15933	157.75739	39.85591	84.70542	-245.73169	41.05592	63.43718	-77.95942	19.47069	10.57329	-81.46894	28.66235	15.93835	-74.34820	-0.36763	-1.23593	-74.84132	-0.49098	-0.85323	-8.03791	-5.74584	-9.17137	-7.09312	-5.71534	-8.89320
272	4.51667	-137.30586	703.55487	157.90910	38.13420	705.94458	170.66907	-327.76697	460.52563	-138.00963	221.98466	459.01947	-126.20392	-279.41446	97.92706	10.30380	187.96835	98.12784	30.04164	-315.30777	25.75995	-100.33895	220.25204	25.63947	-81.49959	266.04492	461.66879	-104.72528	-370.98334	461.67920	-114.75730	224.15634	103.89685	68.15134	-313.95819	102.44855	50.07175	-182.88863	1135.14001	-81.09478	-373.33527	1000.08258	-274.14487	-371.05954	947.95251	-527.40900	-365.93826	932.18665	-620.31177	97.50491	1124.25061	-68.47224	261.33844	1004.17847	-293.23889	261.22415	980.23645	-550.71167	258.87961	983.67542	-644.98993	-49.73937	801.39941	148.29962	-46.68762	880.29242	91.76510	-45.95955	945.77185	69.90059	-46.12988	1034.67834	56.47995	-42.71315	1143.35840	-21.32291	-0.00000	0.00000	-0.00000	-0.72282	802.06708	151.86465	-49.09806	847.35352	130.87585	-53.30924	818.82220	194.11971	105.49320	734.01526	59.48077	-188.60614	730.00928	38.09057	-13.05283	784.81476	189.09796	-91.47932	783.74652	183.39391	183.67003	593.50653	65.72218	-284.58856	590.79169	55.78606	248.71298	293.34329	-52.20513	-339.92255	237.14061	-49.24285	247.30521	20.42543	-153.58791	-345.97467	23.67849	-171.12733	158.29454	41.31507	85.03583	-246.23892	41.23985	63.39364	-75.41103	19.07259	11.03212	-79.14925	28.36167	16.57559	-71.87835	-0.53438	-1.21987	-72.37236	-0.38483	-0.84800	-6.98329	-5.74260	-9.11746	-6.58153	-5.71365	-8.82820
273	4.53333	-136.99442	717.01300	152.82066	38.48660	719.48730	164.98811	-324.85242	462.34079	-134.85628	219.49065	460.99051	-123.67006	-279.60605	98.11996	10.43144	188.37869	98.72617	29.98271	-315.91599	25.94522	-100.07033	220.61279	25.36774	-81.00266	263.56720	463.78848	-102.24374	-368.03922	463.67972	-111.55894	224.60509	104.80200	68.00818	-314.09229	102.82808	50.22762	-182.77609	1152.90784	-80.44504	-375.27087	1006.75568	-263.10342	-372.18176	949.26776	-515.19672	-365.71286	930.83093	-607.52197	97.21742	1141.78320	-67.10126	265.19965	1009.93683	-281.99030	262.30026	984.85974	-539.33875	259.65619	984.66241	-633.67163	-49.64645	815.19952	144.85051	-46.86355	895.35211	89.48200	-46.20560	961.46790	68.42014	-46.36750	1050.85461	55.95265	-42.86091	1160.71106	-20.79963	-0.00000	0.00000	-0.00000	-0.61845	815.89081	148.25000	-49.15485	861.49371	128.34648	-53.08051	831.69641	191.02234	105.38433	749.90442	54.13899	-188.78363	745.75659	33.74204	-12.77944	797.87415	185.17563	-91.22424	796.76807	179.73643	182.70381	601.99396	63.82707	-283.00275	599.21143	54.63104	247.55507	294.97675	-50.93324	-338.92200	238.35028	-47.91685	247.60158	19.71270	-153.08188	-346.67004	23.97640	-170.82410	158.84039	42.32915	85.47552	-246.62886	41.36781	63.57545	-72.34712	18.88876	11.63557	-76.09167	27.84451	17.24299	-69.36380	-0.51564	-1.21794	-69.77369	-0.37739	-0.84362	-6.02473	-5.74105	-9.05864	-5.96546	-5.71198	-8.79953
